<svg viewBox="0 0 24 24" fill="none" xmlns="http://www.w3.org/2000/svg">
<path fill-rule="evenodd" clip-rule="evenodd" d="M0.25 12C0.25 5.51065 5.51065 0.25 12 0.25C18.4893 0.25 23.75 5.51065 23.75 12C23.75 18.4893 18.4893 23.75 12 23.75C5.51065 23.75 0.25 18.4893 0.25 12ZM12 1.75C6.33908 1.75 1.75 6.33908 1.75 12C1.75 17.6609 6.33908 22.25 12 22.25C17.6609 22.25 22.25 17.6609 22.25 12C22.25 6.33908 17.6609 1.75 12 1.75Z" fill="currentColor"/>
<path fill-rule="evenodd" clip-rule="evenodd" d="M7.31835 6.5577C7.57676 6.57429 7.80833 6.72299 7.93092 6.95107C8.5267 8.05948 9.52876 9.0661 10.6156 9.58952C10.7929 8.8706 11.1389 8.22765 11.6389 7.71671C12.3637 6.97608 13.3708 6.55616 14.5303 6.55616C15.2889 6.55616 15.941 6.70152 16.498 6.99885C16.9241 7.22632 17.2675 7.52823 17.5499 7.87616H19.1503C19.4269 7.87616 19.681 8.02839 19.8116 8.27226C19.9421 8.51613 19.9278 8.81204 19.7743 9.04218L18.5782 10.8364C18.5356 13.1902 17.8366 15.2746 16.4952 16.7949C15.0999 18.3762 13.071 19.2762 10.5703 19.2762C9.10568 19.2762 8.02755 18.8894 7.18274 18.2915C6.36606 17.7136 5.80909 16.9641 5.35342 16.3405C5.31494 16.2901 5.28258 16.2343 5.25765 16.1742C5.22258 16.0901 5.20383 16.0017 5.20072 15.9132C5.19661 15.8032 5.21683 15.6967 5.25707 15.5997C5.29703 15.5027 5.35771 15.4132 5.438 15.3383C5.50271 15.2777 5.57858 15.2281 5.66298 15.1932C5.69043 15.1818 5.71833 15.1721 5.74655 15.1642L5.80711 15.1444C5.86149 15.1265 5.9388 15.1009 6.03192 15.0699C6.2021 15.0134 6.42282 14.9397 6.64764 14.8646C4.91452 12.4345 4.95755 9.24775 6.66052 6.86951C6.81127 6.65898 7.05995 6.54111 7.31835 6.5577ZM8.16865 15.9373L7.19124 16.2644C7.44949 16.5662 7.72483 16.8375 8.04922 17.0671C8.62396 17.4738 9.39493 17.7762 10.5703 17.7762C12.6896 17.7762 14.2907 17.0261 15.3704 15.8024C16.4587 14.569 17.0784 12.7836 17.0803 10.6161C17.0792 10.54 17.0897 10.4633 17.1123 10.3888C17.1349 10.3141 17.1687 10.2444 17.2119 10.1816L17.7489 9.37616H17.1703C16.9183 9.37616 16.6831 9.24959 16.5443 9.03925C16.3298 8.7141 16.0878 8.4802 15.7917 8.32213C15.494 8.16324 15.095 8.05616 14.5303 8.05616C13.7461 8.05616 13.1345 8.33308 12.7109 8.76588C12.2834 9.20275 12.0058 9.84186 11.9799 10.6308C11.9725 10.8565 11.8638 11.0668 11.684 11.2034C11.5042 11.34 11.2724 11.3883 11.053 11.3349C9.585 10.9778 8.25051 9.95222 7.3131 8.74044C6.46129 10.6932 6.81409 13.0312 8.46352 14.6987C8.64565 14.8829 8.71989 15.1479 8.65991 15.3998C8.59994 15.6518 8.4142 15.855 8.16865 15.9373Z" fill="currentColor"/>
</svg>
