<svg viewBox="0 0 24 24" fill="none" xmlns="http://www.w3.org/2000/svg">
<path fill-rule="evenodd" clip-rule="evenodd" d="M5.25 8.86828C5.25 7.79089 6.16684 7 7.1928 7H16.8072C17.834 7 18.75 7.79089 18.75 8.86753C18.75 9.50911 18.4109 10.0892 17.8778 10.4271V10.4271L13.9079 12.9499C12.7535 13.6834 11.2473 13.6833 10.0924 12.95L6.12118 10.427V10.427C5.58887 10.0889 5.25 9.50873 5.25 8.86828ZM16.8072 8.5H7.1928C6.90196 8.5 6.75 8.70964 6.75 8.86828C6.75 8.96878 6.80324 9.0832 6.92522 9.16065L10.8964 11.6837V11.6837C11.5607 12.1054 12.4402 12.1053 13.1033 11.6839L17.0747 9.16021C17.1972 9.08257 17.25 8.96903 17.25 8.86828C17.25 8.71039 17.0988 8.5 16.8072 8.5Z" fill="currentColor"/>
<path fill-rule="evenodd" clip-rule="evenodd" d="M6 8C6.41421 8 6.75 8.33579 6.75 8.75V15.0651C6.75 15.6188 7.16629 16 7.6 16H16.4C16.8337 16 17.25 15.6188 17.25 15.0651V8.75C17.25 8.33579 17.5858 8 18 8C18.4142 8 18.75 8.33579 18.75 8.75V15.0651C18.75 16.3732 17.7343 17.5 16.4 17.5H7.6C6.26571 17.5 5.25 16.3732 5.25 15.0651V8.75C5.25 8.33579 5.58579 8 6 8Z" fill="currentColor"/>
<path fill-rule="evenodd" clip-rule="evenodd" d="M0.206055 11.9999C0.206055 5.48621 5.48645 0.205811 12.0002 0.205811C18.5139 0.205811 23.7943 5.48621 23.7943 11.9999C23.7943 18.5136 18.5139 23.794 12.0002 23.794C5.48645 23.794 0.206055 18.5136 0.206055 11.9999ZM12.0002 1.79401C6.36359 1.79401 1.79425 6.36335 1.79425 11.9999C1.79425 17.6365 6.36359 22.2058 12.0002 22.2058C17.6367 22.2058 22.2061 17.6365 22.2061 11.9999C22.2061 6.36335 17.6367 1.79401 12.0002 1.79401Z" fill="currentColor"/>
</svg>
